<svg width="71" height="30" viewBox="0 0 71 30" fill="none" xmlns="http://www.w3.org/2000/svg">
<path d="M11.7249 9.138V7.766C11.7249 7.318 11.6456 7.00067 11.4869 6.814C11.3376 6.62733 11.0156 6.534 10.5209 6.534H9.44289C9.25622 6.534 9.16289 6.37067 9.16289 6.044C9.16289 5.71733 9.25622 5.554 9.44289 5.554H10.5209C11.3422 5.554 11.9349 5.722 12.2989 6.058C12.6629 6.394 12.8449 6.96333 12.8449 7.766V8.998C12.8449 9.77267 12.5416 10.3373 11.9349 10.692C11.3376 11.0373 10.5442 11.21 9.55489 11.21C7.42689 11.21 6.36289 10.4727 6.36289 8.998V2.642C6.36289 1.86733 6.65222 1.30733 7.23089 0.962C7.81889 0.607333 8.58889 0.429999 9.54089 0.429999C11.6036 0.429999 12.6349 1.16733 12.6349 2.642V3.412C12.6349 3.62667 12.4482 3.734 12.0749 3.734C11.7016 3.734 11.5149 3.62667 11.5149 3.412V2.502C11.5149 1.774 10.8429 1.41 9.49889 1.41C8.15489 1.41 7.48289 1.774 7.48289 2.502V9.138C7.48289 9.866 8.18756 10.23 9.59689 10.23C11.0156 10.23 11.7249 9.866 11.7249 9.138ZM16.479 7.388V9.138C16.479 9.866 17.137 10.23 18.453 10.23C19.7783 10.23 20.441 9.866 20.441 9.138V8.13C20.441 7.91533 20.6277 7.808 21.001 7.808C21.3743 7.808 21.561 7.91533 21.561 8.13V8.998C21.561 9.77267 21.281 10.3373 20.721 10.692C20.161 11.0373 19.4097 11.21 18.467 11.21C17.5337 11.21 16.7823 11.0373 16.213 10.692C15.6437 10.3373 15.359 9.77267 15.359 8.998V7.388C15.359 6.42667 15.7697 5.848 16.591 5.652C15.863 5.428 15.499 4.85867 15.499 3.944V2.642C15.499 1.86733 15.7837 1.30733 16.353 0.962C16.9223 0.607333 17.6457 0.429999 18.523 0.429999C19.4097 0.429999 20.1097 0.607333 20.623 0.962C21.1363 1.31667 21.393 1.87667 21.393 2.642V2.852C21.393 3.06667 21.2063 3.174 20.833 3.174C20.4597 3.174 20.273 3.06667 20.273 2.852V2.502C20.273 1.774 19.6617 1.41 18.439 1.41C17.2257 1.41 16.619 1.774 16.619 2.502V3.944C16.619 4.76533 17.123 5.176 18.131 5.176H19.181C19.3677 5.176 19.461 5.33933 19.461 5.666C19.461 5.99267 19.3677 6.156 19.181 6.156H17.991C16.983 6.156 16.479 6.56667 16.479 7.388ZM25.1945 1.62H25.0545V10.748C25.0545 10.9627 24.8679 11.07 24.4945 11.07C24.1212 11.07 23.9345 10.9627 23.9345 10.748V1.69C23.9345 1.27933 23.9812 1.004 24.0745 0.863999C24.1772 0.714666 24.4105 0.64 24.7745 0.64H25.0825C25.7359 0.64 26.1745 0.714666 26.3985 0.863999C26.6225 1.01333 26.8092 1.38667 26.9585 1.984L28.7785 9.334C28.8625 9.67 28.9419 9.88 29.0165 9.964C29.0912 10.048 29.2779 10.09 29.5765 10.09H29.7165V0.962C29.7165 0.747333 29.9032 0.64 30.2765 0.64C30.6499 0.64 30.8365 0.747333 30.8365 0.962V10.02C30.8365 10.4307 30.7852 10.7107 30.6825 10.86C30.5892 11 30.3605 11.07 29.9965 11.07H29.6885C29.0352 11.07 28.5965 10.9953 28.3725 10.846C28.1485 10.6967 27.9619 10.3233 27.8125 9.726L25.9925 2.376C25.9085 2.04 25.8292 1.83 25.7545 1.746C25.6799 1.662 25.4932 1.62 25.1945 1.62ZM38.773 9.138V7.556C38.773 7.248 38.6517 7.024 38.409 6.884C38.1663 6.744 37.7463 6.604 37.149 6.464L35.903 6.184C35.3337 6.05333 34.9043 5.90867 34.615 5.75C33.999 5.42333 33.691 4.74667 33.691 3.72V2.642C33.691 1.86733 33.9663 1.30733 34.517 0.962C35.077 0.607333 35.8143 0.429999 36.729 0.429999C37.6437 0.429999 38.3763 0.607333 38.927 0.962C39.4777 1.30733 39.753 1.86733 39.753 2.642V3.258C39.753 3.47267 39.5663 3.58 39.193 3.58C38.8197 3.58 38.633 3.47267 38.633 3.258V2.502C38.633 1.774 37.9937 1.41 36.715 1.41C35.4457 1.41 34.811 1.774 34.811 2.502V3.692C34.811 4.20533 34.8857 4.56 35.035 4.756C35.1937 4.94267 35.483 5.08267 35.903 5.176L37.149 5.456C38.045 5.652 38.5537 5.78733 38.675 5.862C38.8057 5.92733 38.955 6.002 39.123 6.086C39.291 6.17 39.403 6.25867 39.459 6.352C39.5243 6.436 39.599 6.54333 39.683 6.674C39.823 6.88867 39.893 7.22 39.893 7.668V8.998C39.893 9.76333 39.585 10.3233 38.969 10.678C38.3623 11.0327 37.5923 11.21 36.659 11.21C35.735 11.21 34.9743 11.0327 34.377 10.678C33.789 10.3233 33.495 9.76333 33.495 8.998V8.382C33.495 8.16733 33.6817 8.06 34.055 8.06C34.4283 8.06 34.615 8.16733 34.615 8.382V9.138C34.615 9.52067 34.8063 9.80067 35.189 9.978C35.581 10.146 36.071 10.23 36.659 10.23C37.2563 10.23 37.7557 10.1413 38.157 9.964C38.5677 9.78667 38.773 9.51133 38.773 9.138ZM49.0376 0.891999V10.748C49.0376 10.9627 48.851 11.07 48.4776 11.07C48.1043 11.07 47.9176 10.9627 47.9176 10.748V6.394H43.6756V10.748C43.6756 10.9627 43.489 11.07 43.1156 11.07C42.7423 11.07 42.5556 10.9627 42.5556 10.748V0.891999C42.5556 0.677332 42.7423 0.569999 43.1156 0.569999C43.489 0.569999 43.6756 0.677332 43.6756 0.891999V5.414H47.9176V0.891999C47.9176 0.677332 48.1043 0.569999 48.4776 0.569999C48.851 0.569999 49.0376 0.677332 49.0376 0.891999ZM53.3723 0.891999V10.748C53.3723 10.9627 53.1856 11.07 52.8123 11.07C52.4389 11.07 52.2523 10.9627 52.2523 10.748V0.891999C52.2523 0.677332 52.4389 0.569999 52.8123 0.569999C53.1856 0.569999 53.3723 0.677332 53.3723 0.891999ZM57.8566 1.62H57.7166V10.748C57.7166 10.9627 57.53 11.07 57.1566 11.07C56.7833 11.07 56.5966 10.9627 56.5966 10.748V1.69C56.5966 1.27933 56.6433 1.004 56.7366 0.863999C56.8393 0.714666 57.0726 0.64 57.4366 0.64H57.7446C58.398 0.64 58.8366 0.714666 59.0606 0.863999C59.2846 1.01333 59.4713 1.38667 59.6206 1.984L61.4406 9.334C61.5246 9.67 61.604 9.88 61.6786 9.964C61.7533 10.048 61.94 10.09 62.2386 10.09H62.3786V0.962C62.3786 0.747333 62.5653 0.64 62.9386 0.64C63.312 0.64 63.4986 0.747333 63.4986 0.962V10.02C63.4986 10.4307 63.4473 10.7107 63.3446 10.86C63.2513 11 63.0226 11.07 62.6586 11.07H62.3506C61.6973 11.07 61.2586 10.9953 61.0346 10.846C60.8106 10.6967 60.624 10.3233 60.4746 9.726L58.6546 2.376C58.5706 2.04 58.4913 1.83 58.4166 1.746C58.342 1.662 58.1553 1.62 57.8566 1.62ZM1.52879 20.502V27.138C1.52879 27.866 2.21012 28.23 3.57279 28.23C4.94479 28.23 5.63079 27.866 5.63079 27.138V26.13C5.63079 25.9153 5.81746 25.808 6.19079 25.808C6.56412 25.808 6.75079 25.9153 6.75079 26.13V26.998C6.75079 28.4727 5.71012 29.21 3.62879 29.21C2.65812 29.21 1.87879 29.0373 1.29079 28.692C0.702789 28.3373 0.408789 27.7727 0.408789 26.998V20.642C0.408789 19.8673 0.702789 19.3073 1.29079 18.962C1.87879 18.6073 2.65812 18.43 3.62879 18.43C5.71012 18.43 6.75079 19.1673 6.75079 20.642V21.51C6.75079 21.7247 6.56412 21.832 6.19079 21.832C5.81746 21.832 5.63079 21.7247 5.63079 21.51V20.502C5.63079 19.774 4.94479 19.41 3.57279 19.41C2.21012 19.41 1.52879 19.774 1.52879 20.502ZM15.7502 20.642V26.998C15.7502 27.7727 15.4468 28.3373 14.8402 28.692C14.2428 29.0373 13.4495 29.21 12.4602 29.21C10.3322 29.21 9.26816 28.4727 9.26816 26.998V20.642C9.26816 19.8673 9.56683 19.3073 10.1642 18.962C10.7708 18.6073 11.5688 18.43 12.5582 18.43C14.6862 18.43 15.7502 19.1673 15.7502 20.642ZM10.3882 20.502V27.138C10.3882 27.866 11.0928 28.23 12.5022 28.23C13.9208 28.23 14.6302 27.866 14.6302 27.138V20.502C14.6302 19.774 13.9208 19.41 12.5022 19.41C11.0928 19.41 10.3882 19.774 10.3882 20.502ZM25.0334 20.642V26.998C25.0334 27.7727 24.73 28.3373 24.1234 28.692C23.526 29.0373 22.7327 29.21 21.7434 29.21C19.6154 29.21 18.5514 28.4727 18.5514 26.998V20.642C18.5514 19.8673 18.85 19.3073 19.4474 18.962C20.054 18.6073 20.852 18.43 21.8414 18.43C23.9694 18.43 25.0334 19.1673 25.0334 20.642ZM19.6714 20.502V27.138C19.6714 27.866 20.376 28.23 21.7854 28.23C23.204 28.23 23.9134 27.866 23.9134 27.138V20.502C23.9134 19.774 23.204 19.41 21.7854 19.41C20.376 19.41 19.6714 19.774 19.6714 20.502ZM34.1766 28.818C34.1766 28.986 34.0132 29.07 33.6866 29.07C33.3599 29.07 33.1639 28.9627 33.0986 28.748L32.1046 25.136C32.0206 24.8093 31.9039 24.604 31.7546 24.52C31.6052 24.4267 31.2786 24.38 30.7746 24.38H29.8506C29.6639 24.38 29.5706 24.2167 29.5706 23.89C29.5706 23.5633 29.6639 23.4 29.8506 23.4H30.2006C30.8446 23.4 31.2506 23.358 31.4186 23.274C31.5959 23.19 31.7266 22.98 31.8106 22.644L32.8186 18.892C32.8839 18.6773 33.0799 18.57 33.4066 18.57C33.7332 18.57 33.8966 18.654 33.8966 18.822L32.8886 22.644C32.7672 23.092 32.5759 23.414 32.3146 23.61C32.6599 23.778 32.9119 24.156 33.0706 24.744C33.8079 27.432 34.1766 28.79 34.1766 28.818ZM29.0946 18.892V28.748C29.0946 28.9627 28.9079 29.07 28.5346 29.07C28.1612 29.07 27.9746 28.9627 27.9746 28.748V18.892C27.9746 18.6773 28.1612 18.57 28.5346 18.57C28.9079 18.57 29.0946 18.6773 29.0946 18.892ZM39.5842 29.07H38.6462C37.8435 29.07 37.2742 28.8787 36.9382 28.496C36.6022 28.104 36.4342 27.474 36.4342 26.606V20.642C36.4342 19.8673 36.7142 19.3073 37.2742 18.962C37.8342 18.6073 38.5808 18.43 39.5142 18.43C40.4475 18.43 41.1895 18.6073 41.7402 18.962C42.2908 19.3073 42.5662 19.8673 42.5662 20.642V21.944C42.5662 22.8587 42.2022 23.428 41.4742 23.652C42.2955 23.848 42.7062 24.4267 42.7062 25.388V26.858C42.7062 27.6327 42.4215 28.1973 41.8522 28.552C41.2828 28.8973 40.5268 29.07 39.5842 29.07ZM40.0742 24.156H38.3242C38.1375 24.156 38.0442 23.9927 38.0442 23.666C38.0442 23.3393 38.1375 23.176 38.3242 23.176H39.9342C40.9422 23.176 41.4462 22.7653 41.4462 21.944V20.502C41.4462 19.774 40.7975 19.41 39.5002 19.41C38.2028 19.41 37.5542 19.774 37.5542 20.502V26.606C37.5542 27.1473 37.6335 27.53 37.7922 27.754C37.9602 27.978 38.2448 28.09 38.6462 28.09H39.5562C40.9095 28.09 41.5862 27.726 41.5862 26.998V25.388C41.5862 24.5667 41.0822 24.156 40.0742 24.156ZM51.7072 20.642V26.998C51.7072 27.7727 51.4039 28.3373 50.7972 28.692C50.1999 29.0373 49.4065 29.21 48.4172 29.21C46.2892 29.21 45.2252 28.4727 45.2252 26.998V20.642C45.2252 19.8673 45.5239 19.3073 46.1212 18.962C46.7279 18.6073 47.5259 18.43 48.5152 18.43C50.6432 18.43 51.7072 19.1673 51.7072 20.642ZM46.3452 20.502V27.138C46.3452 27.866 47.0499 28.23 48.4592 28.23C49.8779 28.23 50.5872 27.866 50.5872 27.138V20.502C50.5872 19.774 49.8779 19.41 48.4592 19.41C47.0499 19.41 46.3452 19.774 46.3452 20.502ZM60.9904 20.642V26.998C60.9904 27.7727 60.6871 28.3373 60.0804 28.692C59.4831 29.0373 58.6897 29.21 57.7004 29.21C55.5724 29.21 54.5084 28.4727 54.5084 26.998V20.642C54.5084 19.8673 54.8071 19.3073 55.4044 18.962C56.0111 18.6073 56.8091 18.43 57.7984 18.43C59.9264 18.43 60.9904 19.1673 60.9904 20.642ZM55.6284 20.502V27.138C55.6284 27.866 56.3331 28.23 57.7424 28.23C59.1611 28.23 59.8704 27.866 59.8704 27.138V20.502C59.8704 19.774 59.1611 19.41 57.7424 19.41C56.3331 19.41 55.6284 19.774 55.6284 20.502ZM70.1336 28.818C70.1336 28.986 69.9703 29.07 69.6436 29.07C69.3169 29.07 69.1209 28.9627 69.0556 28.748L68.0616 25.136C67.9776 24.8093 67.8609 24.604 67.7116 24.52C67.5623 24.4267 67.2356 24.38 66.7316 24.38H65.8076C65.6209 24.38 65.5276 24.2167 65.5276 23.89C65.5276 23.5633 65.6209 23.4 65.8076 23.4H66.1576C66.8016 23.4 67.2076 23.358 67.3756 23.274C67.5529 23.19 67.6836 22.98 67.7676 22.644L68.7756 18.892C68.8409 18.6773 69.0369 18.57 69.3636 18.57C69.6903 18.57 69.8536 18.654 69.8536 18.822L68.8456 22.644C68.7243 23.092 68.5329 23.414 68.2716 23.61C68.6169 23.778 68.8689 24.156 69.0276 24.744C69.7649 27.432 70.1336 28.79 70.1336 28.818ZM65.0516 18.892V28.748C65.0516 28.9627 64.8649 29.07 64.4916 29.07C64.1183 29.07 63.9316 28.9627 63.9316 28.748V18.892C63.9316 18.6773 64.1183 18.57 64.4916 18.57C64.8649 18.57 65.0516 18.6773 65.0516 18.892Z" fill="#8592A3"/>
</svg>
